<svg role="img" viewBox="0 0 24 24" xmlns="http://www.w3.org/2000/svg"><title>Kimi</title><path fill="#F5F7FA" fill-rule="evenodd" clip-rule="evenodd" d="M9.423 6.291A2.58 2.58 0 0 1 12 3.9c1.199 0 2.18.777 2.482 1.804a4.49 4.49 0 0 0-1.607 2.107A4.5 4.5 0 0 0 12 7.725c-.651 0-1.273.14-1.832.392a2.425 2.425 0 0 1-.745-1.826Zm-1.78.504a2.62 2.62 0 0 0-2.903 1.165 2.42 2.42 0 0 0 .86 3.319 2.58 2.58 0 0 0 2.042.3 4.47 4.47 0 0 1 1.06-2.392 4.47 4.47 0 0 1-1.06-2.392ZM10.537 9.96A2.42 2.42 0 0 0 9.421 12c0 .94.554 1.778 1.385 2.195.337.18.741.28 1.194.28.524 0 1.006-.148 1.408-.4a2.42 2.42 0 0 0 1.17-2.075c0-.94-.554-1.778-1.384-2.195A2.7 2.7 0 0 0 12 9.525c-.524 0-1.005.148-1.463.435Zm4.002-1.443a4.49 4.49 0 0 1 1.609 2.106 4.49 4.49 0 0 1 2.706.307 2.42 2.42 0 0 0 .406-2.97 2.62 2.62 0 0 0-3.335-1.013 2.58 2.58 0 0 0-1.386 1.57Zm1.608-3.519a4.39 4.39 0 0 1 4.66 2.042A4.39 4.39 0 0 1 20.32 12a4.39 4.39 0 0 1 .487 4.96 4.39 4.39 0 0 1-4.66 2.042A4.39 4.39 0 0 1 12 21.9a4.39 4.39 0 0 1-4.147-2.898 4.39 4.39 0 0 1-4.66-2.042A4.39 4.39 0 0 1 3.68 12a4.39 4.39 0 0 1-.487-4.96 4.39 4.39 0 0 1 4.66-2.042A4.39 4.39 0 0 1 12 2.1a4.39 4.39 0 0 1 4.147 2.898Zm-11 8.072a2.42 2.42 0 0 0-.407 2.97 2.62 2.62 0 0 0 3.336 1.013 2.58 2.58 0 0 0 1.385-1.57 4.49 4.49 0 0 1-1.609-2.106 4.49 4.49 0 0 1-2.705-.307Zm5.978 3.119a4.49 4.49 0 0 1-1.607 2.107A2.58 2.58 0 0 0 12 20.1a2.58 2.58 0 0 0 2.577-2.391 2.425 2.425 0 0 0-.745-1.826A4.5 4.5 0 0 1 12 16.275c-.3 0-.592-.03-.875-.086Zm4.173-1.377a4.47 4.47 0 0 1 1.06 2.393 2.62 2.62 0 0 0 2.902-1.165 2.42 2.42 0 0 0-.86-3.319 2.58 2.58 0 0 0-2.042-.3 4.47 4.47 0 0 1-1.06 2.391Z"/></svg>
